<?xml version="1.0" encoding="UTF-8" standalone="no"?>
<!-- Created with Inkscape (http://www.inkscape.org/) -->

<svg
   xmlns:dc="http://purl.org/dc/elements/1.1/"
   xmlns:cc="http://creativecommons.org/ns#"
   xmlns:rdf="http://www.w3.org/1999/02/22-rdf-syntax-ns#"
   xmlns:svg="http://www.w3.org/2000/svg"
   xmlns="http://www.w3.org/2000/svg"
   xmlns:sodipodi="http://sodipodi.sourceforge.net/DTD/sodipodi-0.dtd"
   xmlns:inkscape="http://www.inkscape.org/namespaces/inkscape"
   width="250.00002"
   height="500.00003"
   viewBox="0 0 66.145836 132.29167"
   version="1.1"
   id="svg8"
   inkscape:version="0.92.3 (2405546, 2018-03-11)"
   sodipodi:docname="stand (copy).svg">
  <defs
     id="defs2" />
  <sodipodi:namedview
     id="base"
     pagecolor="#ffffff"
     bordercolor="#666666"
     borderopacity="1.0"
     inkscape:pageopacity="0.0"
     inkscape:pageshadow="2"
     inkscape:zoom="0.7"
     inkscape:cx="113.96155"
     inkscape:cy="170.31968"
     inkscape:document-units="mm"
     inkscape:current-layer="layer1"
     showgrid="false"
     fit-margin-top="0"
     fit-margin-left="0"
     fit-margin-right="0"
     fit-margin-bottom="0"
     units="px"
     inkscape:window-width="1600"
     inkscape:window-height="836"
     inkscape:window-x="0"
     inkscape:window-y="27"
     inkscape:window-maximized="1" />
  <metadata
     id="metadata5">
    <rdf:RDF>
      <cc:Work
         rdf:about="">
        <dc:format>image/svg+xml</dc:format>
        <dc:type
           rdf:resource="http://purl.org/dc/dcmitype/StillImage" />
        <dc:title />
      </cc:Work>
    </rdf:RDF>
  </metadata>
  <g
     inkscape:label="Layer 1"
     inkscape:groupmode="layer"
     id="layer1"
     transform="translate(-69.736572,-46.70417)">
    <path
       style="fill:#000000;stroke:#000000;stroke-width:2.11666656;stroke-miterlimit:4;stroke-dasharray:none;stroke-opacity:1"
       d="m 92.889018,153.79891 c -0.466557,-1.11662 -1.316253,-5.91762 -1.743015,-9.84847 -0.635816,-5.85641 0.20747,-11.99059 2.217232,-16.12843 1.143947,-2.35524 6.186917,-10.21913 6.793925,-10.59428 0.17107,-0.10573 0.43651,-0.0667 0.58986,0.0866 0.19539,0.19539 -0.55818,1.53062 -2.518031,4.46164 -4.173341,6.24135 -5.396635,9.08149 -6.006521,13.94543 -0.522071,4.1636 -0.112974,10.02759 1.072472,15.37279 0.685109,3.08917 0.709427,3.36359 0.310363,3.50225 -0.190816,0.0663 -0.498487,-0.27626 -0.716285,-0.79753 z m -15.628333,-4.75298 c -0.07861,-0.20486 0.228741,-2.26859 0.683005,-4.58606 1.274238,-6.50067 3.441985,-12.48837 5.936538,-16.39778 1.443789,-2.26267 4.881452,-5.68975 7.942902,-7.91844 4.475504,-3.25811 5.953125,-4.01391 5.953125,-3.04502 0,0.13022 -1.402773,1.18752 -3.117275,2.34955 -5.996453,4.0642 -9.190853,7.37862 -11.40433,11.83283 -1.556605,3.13237 -3.351332,8.59965 -4.13885,12.60818 -0.378275,1.92546 -0.771802,3.9084 -0.874503,4.40653 -0.197682,0.95882 -0.741045,1.37451 -0.980612,0.75021 z m 20.780153,-30.85338 c 0,-0.69291 2.410392,-6.96391 5.811782,-15.12024 1.4868,-3.565271 2.76813,-6.699556 2.84739,-6.965084 0.16169,-0.541639 -0.0134,-0.437269 -7.468545,4.451334 -7.569279,4.96345 -8.934013,6.26161 -11.629174,11.0619 -0.681522,1.21384 -1.377116,1.54411 -1.298477,0.61652 0.08767,-1.03415 2.455533,-4.64779 4.195834,-6.40335 2.024466,-2.04221 4.290264,-3.67934 12.067342,-8.71914 l 5.12655,-3.322151 1.65553,-3.892833 c 0.91053,-2.141059 1.6557,-3.978471 1.65593,-4.08314 2.2e-4,-0.104669 -0.62467,-0.590566 -1.38866,-1.07977 -4.42157,-2.831272 -6.81083,-7.910158 -5.63078,-11.969409 1.31586,-4.526385 3.78089,-7.185819 8.96716,-9.67437 2.15432,-1.033713 2.81519,-1.12926 2.81519,-0.407015 0,0.18046 0.40896,0.47599 0.9088,0.656735 1.26686,0.458104 4.6351,4.11742 5.72524,6.220012 0.49013,0.94532 0.99424,1.655043 1.12025,1.577162 0.56289,-0.347886 7.67601,-15.846357 9.84328,-21.447102 0.70379,-1.81877 1.45243,-2.537485 1.45243,-1.39438 0,1.173721 -4.7463,12.145413 -8.49841,19.645191 l -2.34685,4.690914 0.6931,2.690493 c 1.23561,4.796462 0.50205,6.93774 -3.26451,9.529204 -1.36061,0.936125 -4.29735,2.078683 -5.34288,2.078683 -0.63255,0 -1.058,0.377508 -2.60907,2.315105 -1.0193,1.273307 -2.56373,3.08901 -3.43206,4.034895 -0.86833,0.945886 -1.76148,2.07698 -1.98479,2.513542 -0.4716,0.921999 -5.21292,12.359084 -7.67063,18.503274 -1.569103,3.92267 -2.320972,5.1838 -2.320972,3.89302 z m 14.706552,-29.742535 1.20991,-1.525405 -0.88063,-0.373729 c -0.48435,-0.205552 -0.95821,-0.293026 -1.05301,-0.194387 -0.16491,0.171582 -2.00295,4.513332 -2.26009,5.33872 -0.14278,0.458293 1.23402,-1.039116 2.98382,-3.245199 z m 4.27386,-5.81678 c 1.17973,-1.78263 2.94151,-4.697915 3.91505,-6.478413 2.00459,-3.666147 2.00388,-3.656756 0.47404,-6.274453 -1.90988,-3.267986 -4.56137,-5.721326 -6.61356,-6.119303 -1.13157,-0.219445 -3.99481,1.287805 -6.14817,3.236481 -1.96226,1.775746 -3.66693,4.944078 -3.90591,7.259625 -0.33685,3.263665 1.46769,6.721547 4.78033,9.160174 1.20141,0.884428 1.73669,1.127654 2.21661,1.007206 0.48084,-0.120687 0.66468,-0.0365 0.76595,0.350747 0.0733,0.280249 0.3908,0.634132 0.7056,0.786408 1.32406,0.64049 1.57662,0.446373 3.81006,-2.928472 z m 2.45082,2.121932 c 4.49279,-2.48326 5.55443,-4.889958 4.17359,-9.461373 l -0.35881,-1.187876 -1.93559,3.422785 c -1.06458,1.882529 -2.63728,4.466336 -3.49489,5.741789 -0.85761,1.275453 -1.5593,2.392566 -1.5593,2.482472 0,0.335367 1.76858,-0.220435 3.175,-0.997797 z"
       id="path4759"
       inkscape:connector-curvature="0" />
  </g>
</svg>
