<?xml version="1.0" encoding="UTF-8" standalone="no"?>
<!-- Created with Inkscape (http://www.inkscape.org/) -->

<svg
   xmlns:dc="http://purl.org/dc/elements/1.1/"
   xmlns:cc="http://creativecommons.org/ns#"
   xmlns:rdf="http://www.w3.org/1999/02/22-rdf-syntax-ns#"
   xmlns:svg="http://www.w3.org/2000/svg"
   xmlns="http://www.w3.org/2000/svg"
   xmlns:sodipodi="http://sodipodi.sourceforge.net/DTD/sodipodi-0.dtd"
   xmlns:inkscape="http://www.inkscape.org/namespaces/inkscape"
   width="250.00002"
   height="500.00003"
   viewBox="0 0 66.145836 132.29167"
   version="1.1"
   id="svg8"
   inkscape:version="0.92.3 (2405546, 2018-03-11)"
   sodipodi:docname="jump.svg">
  <defs
     id="defs2" />
  <sodipodi:namedview
     id="base"
     pagecolor="#ffffff"
     bordercolor="#666666"
     borderopacity="1.0"
     inkscape:pageopacity="0.0"
     inkscape:pageshadow="2"
     inkscape:zoom="0.49497475"
     inkscape:cx="69.487602"
     inkscape:cy="364.57921"
     inkscape:document-units="mm"
     inkscape:current-layer="layer1"
     showgrid="false"
     fit-margin-top="0"
     fit-margin-left="0"
     fit-margin-right="0"
     fit-margin-bottom="0"
     units="px"
     inkscape:window-width="1600"
     inkscape:window-height="836"
     inkscape:window-x="0"
     inkscape:window-y="27"
     inkscape:window-maximized="1" />
  <metadata
     id="metadata5">
    <rdf:RDF>
      <cc:Work
         rdf:about="">
        <dc:format>image/svg+xml</dc:format>
        <dc:type
           rdf:resource="http://purl.org/dc/dcmitype/StillImage" />
        <dc:title />
      </cc:Work>
    </rdf:RDF>
  </metadata>
  <g
     inkscape:label="Layer 1"
     inkscape:groupmode="layer"
     id="layer1"
     transform="translate(-69.736572,-46.70417)">
    <path
       style="fill:#000000;stroke:#000000;stroke-width:2.11666656;stroke-miterlimit:4;stroke-dasharray:none;stroke-opacity:1"
       d="m 93.96853,163.75346 c -0.517362,-1.34823 3.863155,-18.41513 8.52231,-33.20368 l 1.46076,-4.63654 -1.06504,-3.58799 c -0.58578,-1.9734 -1.42381,-4.95721 -1.86229,-6.6307 -1.808522,-6.90224 -2.724136,-10.50951 -2.921373,-11.50938 -0.114824,-0.58209 -0.887475,-4.377298 -1.717003,-8.433794 -1.075017,-5.256975 -1.426589,-7.457094 -1.223993,-7.659688 0.509348,-0.50935 0.759388,0.138395 1.463139,3.790344 1.265605,6.567556 2.351401,11.377098 2.568483,11.377098 0.658925,0 5.861647,-7.389785 8.568407,-12.170316 4.06468,-7.178802 9.28734,-19.874741 11.15635,-27.120324 0.32267,-1.250913 0.60574,-1.852084 0.87208,-1.852084 2.12092,0 -6.43355,21.735524 -12.66435,32.178057 -1.60848,2.695734 -4.75405,7.051487 -6.81282,9.433917 l -0.977114,1.13072 1.404214,5.61616 c 0.77232,3.08889 2.04781,7.75929 2.83443,10.37867 0.78661,2.61937 1.37859,5.00062 1.31551,5.29166 -0.0631,0.29105 -1.01858,3.4462 -2.12335,7.01146 -3.54258,11.43249 -6.20045,21.37744 -7.419538,27.76164 -0.539947,2.82763 -1.010396,3.79485 -1.378812,2.83477 z m 36.19816,-20.28066 c -1.18397,-0.8814 -3.25942,-2.62844 -4.61212,-3.8823 -6.49561,-6.02098 -10.5758,-9.17599 -15.37978,-11.89242 -4.07356,-2.30342 -3.79959,-2.10563 -3.43902,-2.48271 0.24192,-0.25301 0.85331,-0.0372 2.80333,0.98934 5.13996,2.70593 9.51568,5.97678 16.06956,12.012 1.81901,1.67506 4.23673,3.73185 5.37272,4.57064 1.89632,1.40021 2.30802,1.96466 1.60411,2.1993 -0.14637,0.0488 -1.23484,-0.63244 -2.4188,-1.51385 z M 94.095535,101.87857 C 86.942737,94.127723 80.682548,86.593096 75.343226,79.308688 c -2.071891,-2.826671 -2.648042,-3.799445 -2.636555,-4.451562 -0.03965,-1.06328 0.05995,-0.77374 0.595314,-0.05528 9.19929,12.345505 14.347949,18.636087 21.85489,26.702097 2.276996,2.44659 2.63719,3.04512 1.966989,3.26852 -0.150468,0.0502 -1.513216,-1.2521 -3.028329,-2.89389 z M 92.76916,87.018837 c -4.521246,-1.615668 -7.054858,-6.796718 -6.805413,-13.916565 0.108632,-3.100656 0.519337,-3.860717 3.448404,-6.381687 1.058286,-0.910838 1.926134,-1.843144 1.928551,-2.071791 0.0057,-0.535446 2.657834,-1.970992 4.972813,-2.691642 1.981375,-0.6168 3.047498,-0.545823 4.735365,0.31526 2.52161,1.286422 3.39249,2.606438 5.39887,8.183195 0.90496,2.515324 0.9996,3.031724 1.01736,5.551425 0.0228,3.235208 -0.70051,5.944351 -2.07686,7.778707 -0.9297,1.239084 -3.34202,2.561466 -5.830512,3.196167 -1.908324,0.48673 -5.475566,0.506138 -6.788578,0.03693 z m 6.705174,-1.10394 c 2.620046,-0.6374 4.578436,-1.795743 5.396726,-3.192047 1.75458,-2.993967 2.15229,-7.073204 1.03392,-10.604764 -1.89229,-5.975433 -3.00793,-7.775515 -5.56404,-8.977529 -1.609765,-0.756994 -2.125348,-0.772624 -3.85144,-0.116761 -2.061145,0.783174 -7.35349,4.91372 -8.674322,6.770099 -1.206957,1.69633 -1.215848,6.032385 -0.02055,10.02247 0.625992,2.089653 1.018789,2.797209 2.340903,4.216731 2.207017,2.369621 5.011074,2.93465 9.338803,1.881801 z"
       id="path4777"
       inkscape:connector-curvature="0"
       sodipodi:nodetypes="scccccscssscssccscccsscscccscccssccccscsscsccsccccccssssssc" />
  </g>
</svg>
