<?xml version="1.0" encoding="UTF-8" standalone="no"?>
<!-- Created with Inkscape (http://www.inkscape.org/) -->

<svg
   xmlns:dc="http://purl.org/dc/elements/1.1/"
   xmlns:cc="http://creativecommons.org/ns#"
   xmlns:rdf="http://www.w3.org/1999/02/22-rdf-syntax-ns#"
   xmlns:svg="http://www.w3.org/2000/svg"
   xmlns="http://www.w3.org/2000/svg"
   xmlns:sodipodi="http://sodipodi.sourceforge.net/DTD/sodipodi-0.dtd"
   xmlns:inkscape="http://www.inkscape.org/namespaces/inkscape"
   width="250.00002"
   height="500.00003"
   viewBox="0 0 66.145836 132.29167"
   version="1.1"
   id="svg8"
   inkscape:version="0.92.3 (2405546, 2018-03-11)"
   sodipodi:docname="stand.svg">
  <defs
     id="defs2" />
  <sodipodi:namedview
     id="base"
     pagecolor="#ffffff"
     bordercolor="#666666"
     borderopacity="1.0"
     inkscape:pageopacity="0.0"
     inkscape:pageshadow="2"
     inkscape:zoom="0.98994949"
     inkscape:cx="132.23327"
     inkscape:cy="213.7453"
     inkscape:document-units="mm"
     inkscape:current-layer="layer1"
     showgrid="false"
     fit-margin-top="0"
     fit-margin-left="0"
     fit-margin-right="0"
     fit-margin-bottom="0"
     units="px"
     inkscape:window-width="1600"
     inkscape:window-height="836"
     inkscape:window-x="0"
     inkscape:window-y="27"
     inkscape:window-maximized="1" />
  <metadata
     id="metadata5">
    <rdf:RDF>
      <cc:Work
         rdf:about="">
        <dc:format>image/svg+xml</dc:format>
        <dc:type
           rdf:resource="http://purl.org/dc/dcmitype/StillImage" />
        <dc:title />
      </cc:Work>
    </rdf:RDF>
  </metadata>
  <g
     inkscape:label="Layer 1"
     inkscape:groupmode="layer"
     id="layer1"
     transform="translate(-69.736572,-46.70417)">
    <path
       style="fill:#000000;stroke-width:2.11666667;stroke:#000000;stroke-opacity:1;stroke-miterlimit:4;stroke-dasharray:none"
       d="m 117.02317,177.17889 c -1.72337,-1.84242 -2.31068,-3.1687 -4.94581,-11.16889 -2.57276,-7.81081 -3.32037,-9.41552 -8.98849,-19.29332 -3.863402,-6.73273 -4.918502,-8.95767 -5.421264,-11.43208 -0.227901,-1.12165 -0.416189,-2.13368 -0.418417,-2.24896 -0.01267,-0.65575 -0.517708,0.72873 -0.521065,1.42844 -0.0047,0.9857 -0.481029,1.4021 -0.91887,0.80331 -0.276724,-0.37844 -0.332048,-0.37603 -0.589647,0.0257 -3.929453,6.12843 -6.539522,10.76085 -12.346394,21.91275 -4.244054,8.15055 -5.472455,11.14693 -6.005329,14.64853 -0.32597,2.14199 -0.593075,2.67302 -1.093034,2.17306 -0.488021,-0.48802 0.656451,-5.74748 1.896427,-8.71509 1.204598,-2.88294 8.454463,-16.70226 12.111017,-23.0854 1.372871,-2.39657 3.314687,-5.55995 4.315147,-7.02973 l 1.819019,-2.67231 1.189346,-13.74006 c 0.65414,-7.55704 1.262049,-14.48421 1.350907,-15.39371 0.08918,-0.91273 0.05588,-1.65365 -0.07432,-1.65365 -0.129736,0 -0.493062,0.34785 -0.807389,0.773 -0.314325,0.42515 -2.628671,2.35866 -5.142986,4.29668 -5.091765,3.92473 -11.090448,8.87844 -14.475144,11.95359 -1.22691,1.11471 -2.321212,2.02674 -2.431781,2.02674 -0.566811,0 -0.469477,-0.66242 0.201851,-1.37373 1.951672,-2.06789 11.238963,-9.78456 17.425258,-14.47838 1.600729,-1.21454 3.307244,-2.66905 3.792257,-3.23224 0.485011,-0.56319 1.045163,-1.02398 1.24478,-1.02398 0.453641,0 0.573582,-0.744846 0.892061,-5.539732 L 99.335019,91.319511 97.9634,89.827155 C 94.736612,86.31633 90.747329,77.744954 89.847026,72.388312 c -0.728973,-4.337259 0.213358,-7.25893 3.122993,-9.682753 3.648869,-3.039631 5.870721,-4.29485 5.870721,-3.316622 0,0.119964 -1.041797,0.973371 -2.315104,1.89646 -3.013896,2.184935 -4.497939,3.563854 -5.081413,4.721468 -1.105406,2.193127 -0.883095,6.429605 0.553775,10.553028 1.142818,3.279574 4.226875,9.384821 5.835259,11.551574 1.284274,1.730121 1.385276,1.808525 1.533803,1.190625 0.267298,-1.112012 0.91819,-0.809609 1.01057,0.469506 0.0707,0.978341 0.21347,1.213376 1.05833,1.74167 2.08321,1.302641 3.62162,1.515821 5.66187,0.784579 3.66251,-1.312677 7.8864,-6.338356 9.61075,-11.435114 0.71542,-2.114598 1.54924,-7.255836 1.32297,-8.157337 -0.0831,-0.331112 -0.8645,-1.38924 -1.73645,-2.351396 -0.87194,-0.962157 -2.54317,-2.990124 -3.71384,-4.506593 -3.93251,-5.094116 -6.44784,-6.154862 -12.14512,-5.121748 -1.180822,0.214123 -1.74748,0.21977 -1.947838,0.01941 -0.476049,-0.476049 0.109545,-0.769243 2.177128,-1.090039 5.94699,-0.922707 8.68526,0.311567 12.94416,5.834561 0.95382,1.236927 2.46736,3.022865 3.36342,3.96875 2.09272,2.209075 2.36002,3.00342 1.97528,5.870052 -0.65206,4.858422 -1.64051,7.674496 -3.9665,11.3005 -2.53114,3.945826 -6.38132,6.815471 -9.52697,7.100707 -1.34701,0.122143 -1.7726,0.03343 -3.32516,-0.693099 -0.97924,-0.458243 -1.80248,-0.801339 -1.82943,-0.762434 -0.0269,0.0389 -0.1845,2.148543 -0.350137,4.688091 -0.248616,3.811802 -0.239125,4.688832 0.0544,5.027082 0.19556,0.22535 0.92921,1.42176 1.63034,2.65868 3.93494,6.94201 5.73824,8.73138 16.98351,16.85239 2.51024,1.81282 4.56407,3.39905 4.56407,3.52496 0,0.63522 -0.71907,0.48266 -2.06646,-0.43842 -0.82163,-0.56167 -3.87772,-2.79902 -6.79131,-4.97189 -6.96975,-5.19784 -9.95309,-8.17191 -12.3089,-12.27068 -0.94589,-1.6457 -1.89963,-3.2308 -2.119421,-3.52246 -0.362384,-0.48085 -0.514035,0.79189 -1.627156,13.65613 l -1.227523,14.1864 0.617434,0.61744 c 0.339587,0.33958 0.694592,1.07722 0.788895,1.63918 0.557506,3.32219 1.027866,4.35646 5.707501,12.55023 5.21683,9.13435 6.56778,11.98065 8.41834,17.73648 3.04459,9.46965 3.46412,10.43939 5.48315,12.67421 0.83283,0.92184 0.99327,1.58479 0.38354,1.58479 -0.11702,0 -0.75482,-0.57951 -1.41733,-1.28779 z"
       id="path4759"
       inkscape:connector-curvature="0" />
  </g>
</svg>
