<?xml version="1.0" encoding="UTF-8"?>
<!-- Created with Inkscape (http://www.inkscape.org/) -->
<svg width="250" height="500" version="1.1" viewBox="0 0 66.146 132.29" xmlns="http://www.w3.org/2000/svg" xmlns:cc="http://creativecommons.org/ns#" xmlns:dc="http://purl.org/dc/elements/1.1/" xmlns:rdf="http://www.w3.org/1999/02/22-rdf-syntax-ns#">
 <metadata>
  <rdf:RDF>
   <cc:Work rdf:about="">
    <dc:format>image/svg+xml</dc:format>
    <dc:type rdf:resource="http://purl.org/dc/dcmitype/StillImage"/>
    <dc:title/>
   </cc:Work>
  </rdf:RDF>
 </metadata>
 <g transform="translate(-69.737 -46.704)">
  <path d="m115.95 153.8c0.46656-1.1166 1.3163-5.9176 1.743-9.8485 0.63581-5.8564-0.20747-11.991-2.2172-16.128-1.144-2.3552-6.1869-10.219-6.7939-10.594-0.17107-0.10573-0.43651-0.0667-0.58986 0.0866-0.19539 0.19539 0.55818 1.5306 2.518 4.4616 4.1733 6.2414 5.3966 9.0815 6.0065 13.945 0.52207 4.1636 0.11298 10.028-1.0725 15.373-0.68511 3.0892-0.70943 3.3636-0.31036 3.5022 0.19081 0.0663 0.49848-0.27626 0.71628-0.79753zm15.628-4.753c0.0786-0.20486-0.22875-2.2686-0.68301-4.5861-1.2742-6.5007-3.442-12.488-5.9365-16.398-1.4438-2.2627-4.8814-5.6898-7.9429-7.9184-4.4755-3.2581-5.9531-4.0139-5.9531-3.045 0 0.13022 1.4028 1.1875 3.1173 2.3496 5.9964 4.0642 9.1908 7.3786 11.404 11.833 1.5566 3.1324 3.3513 8.5996 4.1388 12.608 0.37828 1.9255 0.7718 3.9084 0.8745 4.4065 0.19769 0.95882 0.74105 1.3745 0.98062 0.75021zm-20.78-30.853c0-0.69291-2.4104-6.9639-5.8118-15.12-1.4868-3.5653-2.7681-6.6996-2.8474-6.9651-0.16169-0.54164 0.0134-0.43727 7.4686 4.4513 7.5693 4.9634 8.934 6.2616 11.629 11.062 0.68152 1.2138 1.3771 1.5441 1.2985 0.61652-0.0877-1.0342-2.4555-4.6478-4.1958-6.4034-2.0245-2.0422-4.2903-3.6793-12.067-8.7191l-5.1266-3.3222-1.6555-3.8928c-0.91053-2.1411-1.6557-3.9785-1.6559-4.0831-2.2e-4 -0.10467 0.62467-0.59057 1.3887-1.0798 4.4216-2.8313 6.8108-7.9102 5.6308-11.969-1.3159-4.5264-3.7809-7.1858-8.9672-9.6744-2.1543-1.0337-2.8152-1.1293-2.8152-0.40702 0 0.18046-0.40896 0.47599-0.9088 0.65674-1.2669 0.4581-4.6351 4.1174-5.7252 6.22-0.49013 0.94532-0.99424 1.655-1.1202 1.5772-0.56289-0.34789-7.676-15.846-9.8433-21.447-0.70379-1.8188-1.4524-2.5375-1.4524-1.3944 0 1.1737 4.7463 12.145 8.4984 19.645l2.3468 4.6909-0.6931 2.6905c-1.2356 4.7965-0.50205 6.9377 3.2645 9.5292 1.3606 0.93612 4.2974 2.0787 5.3429 2.0787 0.63255 0 1.058 0.37751 2.6091 2.3151 1.0193 1.2733 2.5637 3.089 3.4321 4.0349 0.86833 0.94589 1.7615 2.077 1.9848 2.5135 0.4716 0.922 5.2129 12.359 7.6706 18.503 1.5691 3.9227 2.321 5.1838 2.321 3.893zm-14.707-29.743-1.2099-1.5254 0.88063-0.37373c0.48435-0.20555 0.95821-0.29303 1.053-0.19439 0.16491 0.17158 2.003 4.5133 2.2601 5.3387 0.14278 0.45829-1.234-1.0391-2.9838-3.2452zm-4.2739-5.8168c-1.1797-1.7826-2.9415-4.6979-3.915-6.4784-2.0046-3.6661-2.0039-3.6568-0.47404-6.2745 1.9099-3.268 4.5614-5.7213 6.6136-6.1193 1.1316-0.21944 3.9948 1.2878 6.1482 3.2365 1.9623 1.7757 3.6669 4.9441 3.9059 7.2596 0.33685 3.2637-1.4677 6.7215-4.7803 9.1602-1.2014 0.88443-1.7367 1.1277-2.2166 1.0072-0.48084-0.12069-0.66468-0.0365-0.76595 0.35075-0.0733 0.28025-0.3908 0.63413-0.7056 0.78641-1.3241 0.64049-1.5766 0.44637-3.8101-2.9285zm-2.4508 2.1219c-4.4928-2.4833-5.5544-4.89-4.1736-9.4614l0.35881-1.1879 1.9356 3.4228c1.0646 1.8825 2.6373 4.4663 3.4949 5.7418s1.5593 2.3926 1.5593 2.4825c0 0.33537-1.7686-0.22044-3.175-0.9978z" stroke="#000" stroke-width="2.1167"/>
 </g>
</svg>
